<?xml version="1.0" encoding="UTF-8"?>
<svg id="Camada_2" xmlns="http://www.w3.org/2000/svg" viewBox="0 0 439.4 100.29">
  <defs>
    <style>
      .cls-1 {
        fill: #ff8b00;
      }

      .cls-2 {
        fill: #d1d1d1;
      }
    </style>
  </defs>
  <g id="Camada_1-2" data-name="Camada_1">
    <g>
      <path class="cls-2" d="M196.69,37.88l.03.03h-.03v41.05c0,.43.35.77.77.77h20.67c.43,0,.77-.35.77-.77v-17c0-.69.83-1.03,1.32-.54l18.09,18.09c.14.14.34.23.54.23h24.72c.43,0,.77-.35.77-.77v-4.52c0-.2-.08-.4-.23-.54l-35.76-35.76c-.14-.14-.34-.23-.54-.23l-31.12-.02Z"/>
      <rect class="cls-2" x="170.17" y="37.98" width="22.21" height="41.74" rx=".77" ry=".77"/>
      <path class="cls-2" d="M70.06,58.6v-19.92c0-.43-.35-.77-.77-.77h-13.69c-.2,0-.4.08-.54.23l-21.24,21.24L.23,92.95c-.14.14-.23.34-.23.54v6.03c0,.43.35.77.77.77h23.21c.2,0,.4-.08.54-.23l40.47-40.47c.14-.14.34-.23.54-.23h3.75c.43,0,.77-.35.77-.77Z"/>
      <path class="cls-2" d="M121.16,45.26v-10.58c0-.2-.08-.4-.23-.54l-9.87-9.87L87.02.23c-.14-.14-.34-.23-.54-.23h-24.5c-.43,0-.77.35-.77.77v4.74c0,.2.08.4.23.54l33.37,33.39c.3.3.3.79,0,1.09l-33.37,33.36c-.14.14-.23.34-.23.55v4.51c0,.43.35.77.77.77h24.72c.2,0,.4-.08.54-.23l23.81-23.8,9.87-9.88c.14-.14.23-.34.23-.54Z"/>
      <path class="cls-2" d="M405.59,59.37l-21.24-21.24c-.14-.14-.34-.23-.54-.23h-13.69c-.43,0-.77.35-.77.77v19.92c0,.43.35.77.77.77h3.75c.2,0,.4.08.54.23l40.47,40.47c.14.14.34.23.54.23h23.21c.43,0,.77-.35.77-.77v-6.03c0-.2-.08-.4-.23-.54l-33.58-33.58Z"/>
      <path class="cls-2" d="M328.56,55.91h33.6c.43,0,.77-.35.77-.77v-16.49c0-.43-.35-.77-.77-.77h-14.16c-.69,0-1.03-.83-.55-1.32l30.5-30.51c.14-.14.23-.34.23-.54V.77c0-.43-.35-.77-.77-.77h-24.5c-.2,0-.4.08-.54.23l-24.04,24.04-9.9,9.9c-.14.14-.23.34-.23.54v10.52c0,.2.08.4.23.54l9.9,9.91.22.22Z"/>
      <path class="cls-2" d="M335.65,62.99l16.5,16.5c.14.14.34.23.54.23h29.24c.69,0,1.03-.83.54-1.32l-16.49-16.48c-.14-.14-.34-.23-.54-.23h-29.26c-.68,0-1.02.82-.54,1.3Z"/>
      <path class="cls-2" d="M290.19,61.47l-4.24-4.24c-.49-.49-.14-1.32.54-1.32h23.69c.43,0,.77-.35.77-.77v-16.49c0-.43-.35-.77-.77-.77h-49.59s-19,.02-19,.02c-.43,0-.77.35-.77.77v4.52c0,.2.08.4.23.54l35.76,35.76c.14.14.34.23.54.23h31.09,0s31.31,0,31.31,0c.43,0,.77-.35.77-.77v-4.52c0-.2-.08-.4-.23-.55l-11.97-11.97c-.14-.14-.34-.23-.54-.23h-37.04c-.2,0-.4-.08-.54-.23Z"/>
      <path class="cls-2" d="M144.76,57.5l13.76-13.76c.14-.14.23-.34.23-.54v-4.52c0-.43-.35-.77-.77-.77h-24.71c-.2,0-.4.08-.54.23l-34.64,34.64v6.19c0,.43.35.77.77.77h67.64c.43,0,.77-.35.77-.77v-16.49c0-.43-.35-.77-.77-.77h-24.07c-.69,0-1.03-.83-.54-1.32l2.88-2.88Z"/>
      <path class="cls-1" d="M228.13,74.34c-3.87-.73-7.19,2.59-6.46,6.46.41,2.15,2.16,3.9,4.31,4.31,3.87.73,7.19-2.59,6.46-6.46-.41-2.15-2.16-3.9-4.31-4.31Z"/>
      <path class="cls-1" d="M118.01,18.71l7.31,7.31c.14.14.34.23.54.23h187.68c.2,0,.4-.08.54-.23l7.31-7.31c.49-.49.14-1.32-.54-1.32H118.55c-.69,0-1.03.83-.54,1.32Z"/>
      <path class="cls-1" d="M393.43,91.45H45.97c-.2,0-.4.08-.54.23l-7.31,7.31c-.49.49-.14,1.32.54,1.32h362.08c.69,0,1.03-.83.54-1.32l-7.31-7.31c-.14-.14-.34-.23-.54-.23Z"/>
    </g>
  </g>
</svg>